# xmcd
#
# Track frame offsets:
#	182
#	19015
#	38865
#	55625
#	73742
#	91645
#	109107
#	123472
#	142282
#	161780
#
# Disc length: 2383 seconds
#
# Revision: 0
# Processed by: cddbd v1.5.2PL0 Copyright (c) Steve Scherf et al.
# Submitted via: audiograbber 1.83.01
#
DISCID=87094d0a
DTITLE=Jeffry Osborne - Jeffry Osborne
DYEAR=1900
DGENRE=
TTITLE0=New Love
TTITLE1=Eenie Meenie
TTITLE2=I Really Don't Need No Light
TTITLE3=On The Wings Of Love
TTITLE4=Ready For Your Love
TTITLE5=Who You Talkin' To
TTITLE6=You Were Made To Love
TTITLE7=Ain't Nothin' Missin'
TTITLE8=Baby
TTITLE9=Congratulations
EXTD=
EXTT0=
EXTT1=
EXTT2=
EXTT3=
EXTT4=
EXTT5=
EXTT6=
EXTT7=
EXTT8=
EXTT9=
PLAYORDER=
